<svg width="48" height="24" viewBox="0 0 34 16" fill="none" xmlns="http://www.w3.org/2000/svg">
<rect width="34" height="16" rx="4" fill="#0094FF"/>
<path d="M6.75977 9.59863C6.75977 9.35449 6.66699 9.16569 6.48145 9.03223C6.29915 8.89551 5.97852 8.77832 5.51953 8.68066C5.0638 8.58301 4.70085 8.46582 4.43066 8.3291C4.16374 8.19238 3.96517 8.02962 3.83496 7.84082C3.70801 7.65202 3.64453 7.42741 3.64453 7.16699C3.64453 6.73405 3.82682 6.36784 4.19141 6.06836C4.55924 5.76888 5.02799 5.61914 5.59766 5.61914C6.19661 5.61914 6.68164 5.77376 7.05273 6.08301C7.42708 6.39225 7.61426 6.78776 7.61426 7.26953H6.70605C6.70605 7.02214 6.60026 6.80892 6.38867 6.62988C6.18034 6.45085 5.91667 6.36133 5.59766 6.36133C5.26888 6.36133 5.01172 6.43294 4.82617 6.57617C4.64062 6.7194 4.54785 6.90658 4.54785 7.1377C4.54785 7.35579 4.63411 7.52018 4.80664 7.63086C4.97917 7.74154 5.29004 7.84733 5.73926 7.94824C6.19173 8.04915 6.55794 8.1696 6.83789 8.30957C7.11784 8.44954 7.32454 8.61882 7.45801 8.81738C7.59473 9.0127 7.66309 9.25195 7.66309 9.53516C7.66309 10.0072 7.47428 10.3864 7.09668 10.6729C6.71908 10.9561 6.22917 11.0977 5.62695 11.0977C5.20378 11.0977 4.82943 11.0228 4.50391 10.873C4.17839 10.7233 3.92285 10.515 3.7373 10.248C3.55501 9.97786 3.46387 9.68652 3.46387 9.37402H4.36719C4.38346 9.67676 4.50391 9.91764 4.72852 10.0967C4.95638 10.2725 5.25586 10.3604 5.62695 10.3604C5.96875 10.3604 6.24219 10.292 6.44727 10.1553C6.6556 10.0153 6.75977 9.82975 6.75977 9.59863ZM11.0322 11.0977C10.3161 11.0977 9.7334 10.8633 9.28418 10.3945C8.83496 9.92253 8.61035 9.29264 8.61035 8.50488V8.33887C8.61035 7.81478 8.70964 7.34766 8.9082 6.9375C9.11003 6.52409 9.38997 6.20182 9.74805 5.9707C10.1094 5.73633 10.5 5.61914 10.9199 5.61914C11.6068 5.61914 12.1406 5.84538 12.5215 6.29785C12.9023 6.75033 13.0928 7.39811 13.0928 8.24121V8.61719H9.51367C9.52669 9.13802 9.67806 9.55957 9.96777 9.88184C10.2607 10.2008 10.6318 10.3604 11.0811 10.3604C11.4001 10.3604 11.6702 10.2952 11.8916 10.165C12.113 10.0348 12.3066 9.8623 12.4727 9.64746L13.0244 10.0771C12.5817 10.7575 11.9176 11.0977 11.0322 11.0977ZM10.9199 6.36133C10.5553 6.36133 10.2493 6.49479 10.002 6.76172C9.75456 7.02539 9.60156 7.39648 9.54297 7.875H12.1895V7.80664C12.1634 7.34766 12.0397 6.99284 11.8184 6.74219C11.597 6.48828 11.2975 6.36133 10.9199 6.36133ZM13.9277 8.31445C13.9277 7.49089 14.1182 6.83659 14.499 6.35156C14.8799 5.86328 15.3844 5.61914 16.0127 5.61914C16.6572 5.61914 17.1602 5.84701 17.5215 6.30273L17.5654 5.7168H18.3906V10.873C18.3906 11.5566 18.1872 12.0954 17.7803 12.4893C17.3766 12.8831 16.833 13.0801 16.1494 13.0801C15.7686 13.0801 15.3958 12.9987 15.0312 12.8359C14.6667 12.6732 14.3883 12.4502 14.1963 12.167L14.665 11.625C15.0524 12.1035 15.526 12.3428 16.0859 12.3428C16.5254 12.3428 16.8672 12.2191 17.1113 11.9717C17.3587 11.7243 17.4824 11.376 17.4824 10.9268V10.4727C17.1211 10.8893 16.6279 11.0977 16.0029 11.0977C15.3844 11.0977 14.8831 10.8486 14.499 10.3506C14.1182 9.85254 13.9277 9.17383 13.9277 8.31445ZM14.8359 8.41699C14.8359 9.0127 14.958 9.48145 15.2021 9.82324C15.4463 10.1618 15.7881 10.3311 16.2275 10.3311C16.7972 10.3311 17.2155 10.0723 17.4824 9.55469V7.14258C17.2057 6.63802 16.7907 6.38574 16.2373 6.38574C15.7979 6.38574 15.4544 6.55664 15.207 6.89844C14.9596 7.24023 14.8359 7.74642 14.8359 8.41699ZM23.0195 10.4775C22.668 10.891 22.152 11.0977 21.4717 11.0977C20.9085 11.0977 20.4788 10.9349 20.1826 10.6094C19.8896 10.2806 19.7415 9.79557 19.7383 9.1543V5.7168H20.6416V9.12988C20.6416 9.93066 20.9671 10.3311 21.6182 10.3311C22.3083 10.3311 22.7673 10.0739 22.9951 9.55957V5.7168H23.8984V11H23.0391L23.0195 10.4775ZM26.2568 11H25.3535V5.7168H26.2568V11ZM25.2803 4.31543C25.2803 4.16895 25.3242 4.04525 25.4121 3.94434C25.5033 3.84342 25.6367 3.79297 25.8125 3.79297C25.9883 3.79297 26.1217 3.84342 26.2129 3.94434C26.304 4.04525 26.3496 4.16895 26.3496 4.31543C26.3496 4.46191 26.304 4.58398 26.2129 4.68164C26.1217 4.7793 25.9883 4.82812 25.8125 4.82812C25.6367 4.82812 25.5033 4.7793 25.4121 4.68164C25.3242 4.58398 25.2803 4.46191 25.2803 4.31543ZM30.2607 6.52734C30.124 6.50456 29.9759 6.49316 29.8164 6.49316C29.224 6.49316 28.8219 6.74544 28.6104 7.25V11H27.707V5.7168H28.5859L28.6006 6.32715C28.8968 5.85514 29.3167 5.61914 29.8604 5.61914C30.0361 5.61914 30.1696 5.64193 30.2607 5.6875V6.52734Z" fill="white"/>
</svg>
