<?xml version="1.0" encoding="UTF-8"?>
<!DOCTYPE svg PUBLIC "-//W3C//DTD SVG 1.0//EN" "http://www.w3.org/TR/2001/REC-SVG-20010904/DTD/svg10.dtd">
<!-- Creator: CorelDRAW 2020 (64 Bit) -->
<svg xmlns="http://www.w3.org/2000/svg" xml:space="preserve"  width="230px" height="230px" version="1.0" style="shape-rendering:geometricPrecision; text-rendering:geometricPrecision; image-rendering:optimizeQuality; fill-rule:evenodd; clip-rule:evenodd"
viewBox="0 0 25400 5926.66"
 xmlns:xlink="http://www.w3.org/1999/xlink"
 xmlns:xodm="http://www.corel.com/coreldraw/odm/2003">
 <defs>
  <style type="text/css">
   <![CDATA[
    .fil0 {fill:#FF6633}
    .fil1 {fill:#FF6633;fill-rule:nonzero}
   ]]>
  </style>
 </defs>
 <g id="Camada_x0020_1">
  <metadata id="CorelCorpID_0Corel-Layer"/>
  <g id="_2206335091360">
   <g>
    <path class="fil0" d="M24818.56 2493.73c-454.05,-66.22 -586.46,-103.51 -1078.33,-112.96 -383.59,-7.36 -792.43,33.44 -1144.58,85.14 -66.23,119.82 -132.44,239.64 -198.66,359.46l558.11 964.86c282.17,24.14 489.78,158.83 633.78,387.84 293.24,539.19 94.6,1040.55 359.46,1295.94 74.77,72.1 132.7,141.6 302.7,198.65l227.02 -1787.84 16.98 -31.99c-417.74,-65.65 -584.58,-147.39 -1234.75,-128.81 567.68,-83.75 911.36,-75.63 1309.64,-12.29l420.62 -792.55 -0.5 -2.33c-605,-146.13 -1256.74,-202.7 -1960.34,-167.16 569.11,-90.42 1215.71,-103.99 1924.71,16.22l-135.86 -272.18z"/>
    <path class="fil0" d="M21911.33 1565.84c1307.56,-362.4 2209.66,-216.9 2527.81,728.78 -524.99,-51.14 -1011.77,-51.4 -1479.32,1.02 -195.33,-481.08 -544.81,-724.36 -1048.49,-729.8z"/>
    <path class="fil0" d="M20218.95 592.94c210.48,387.83 564.36,468.75 706.17,466.63l1901.35 -28.37c956.32,11.07 1415.11,290.11 1604.3,914.44 -245.98,-396.64 -570.33,-563.1 -922.3,-638.52 -506.93,-108.61 -1011.33,30.85 -1475.67,104.07 -271.75,42.84 -506.59,63.22 -733.11,70.94 -728.37,37.83 -1097.29,-331.09 -1080.74,-889.19z"/>
    <path class="fil0" d="M20032.13 261.86c728.37,0 871.55,66.07 1144.6,312.17 45.46,40.98 85.14,75.67 141.89,122.96 124.72,103.92 283.78,170.27 463.5,227.03 -137.41,10.19 -277.27,-6.44 -406.75,-9.45 -406.76,-9.47 -712.58,-69.55 -917.57,-331.09 -38.89,-49.63 -88.49,-89.47 -132.42,-141.89 -67.92,-81.05 -189.2,-141.9 -293.25,-179.73z"/>
   </g>
   <path class="fil1" d="M2218.93 3418.74l0 -448.96 -1677.06 0 0 2693.09 448.95 0 0 -1121.74 1041.48 0 0 -448.96 -1041.48 0 0 -673.43 1228.11 0z"/>
   <path id="1" class="fil1" d="M3925.36 4524.82c394.79,-80.27 664.3,-447 623.84,-848.32 -39.81,-400.67 -377.18,-706.07 -780.46,-706.72l-1159.58 0 0 2692.44 448.95 0 0 -1121.09 333.46 0 771.97 1121.74 544.88 0 -783.06 -1138.05zm-867.25 -432.65l0 -673.43 710.63 0c122.68,-3.92 238.19,58.73 300.83,165.1 62.65,105.71 62.65,236.87 0,343.24 -62.64,105.71 -178.15,169.01 -300.83,164.44l-710.63 0.65z"/>
   <path id="2" class="fil1" d="M6776.36 3418.74l0 -448.96 -1677.06 0 0 2693.09 1677.06 0 0 -448.96 -1228.11 0 0 -672.78 1041.48 0 0 -448.96 -1041.48 0 0 -673.43 1228.11 0z"/>
   <path id="3" class="fil1" d="M8843.65 3418.74l0 -448.96 -1677.06 0 0 2693.09 1677.06 0 0 -448.96 -1228.11 0 0 -672.78 1041.48 0 0 -448.96 -1041.48 0 0 -673.43 1228.11 0z"/>
   <path id="4" class="fil1" d="M9682.83 5213.91l0 -2244.13 -448.95 0 0 2693.09 1571.34 0 0 -448.96 -1122.39 0z"/>
   <path id="5" class="fil1" d="M12332.2 2948.9l-1136.74 2713.97 486.8 0 186.63 -447 920.75 0 186.63 447 486.16 0 -1130.23 -2713.97zm-274.72 1818.01l273.42 -653.2 272.11 653.2 -545.53 0z"/>
   <path id="6" class="fil1" d="M15537.54 2969.78l0 1636.61 -1683.58 -1646.4 0 2702.88 448.95 0 0 -1635.95 1683.59 1645.74 0 -2702.88 -448.96 0z"/>
   <path id="7" class="fil1" d="M17165.66 2969.78l-786.32 0 0 2693.09 786.32 0c743.91,0 1346.87,-602.96 1346.87,-1346.22 0,-743.91 -602.96,-1346.87 -1346.87,-1346.87l0 0zm0 2244.13l-337.37 0 0 -1795.17 337.37 0c495.94,0 897.92,401.97 897.92,897.26 0,495.94 -401.98,897.91 -897.92,897.91l0 0z"/>
   <path id="8" class="fil1" d="M20251.59 2969.78c-743.91,0 -1346.87,602.96 -1346.87,1346.87 0,743.91 602.96,1346.87 1346.87,1346.87 743.91,0 1346.87,-602.96 1346.87,-1346.87 -1.31,-743.91 -603.62,-1346.22 -1346.87,-1346.87l0 0zm0 2244.79c-495.94,0 -897.92,-401.98 -897.92,-897.92 0,-495.94 401.98,-897.91 897.92,-897.91 495.94,0 897.91,401.97 897.91,897.91 -0.65,495.94 -402.63,897.26 -897.91,897.92z"/>
  </g>
 </g>
</svg>
