<svg width="286" height="101" viewBox="0 0 286 101" fill="none" xmlns="http://www.w3.org/2000/svg">
<path fill-rule="evenodd" clip-rule="evenodd" d="M265.204 27.3499C260.288 26.6236 258.855 26.2146 253.529 26.111C249.376 26.0303 244.95 26.4778 241.137 27.0448C240.42 28.3589 239.703 29.673 238.986 30.9871L245.029 41.5691C248.084 41.8339 250.332 43.3111 251.891 45.8227C255.066 51.7362 252.915 57.2348 255.782 60.0358C256.592 60.8265 257.219 61.5888 259.06 62.2145L261.518 42.6065L261.701 42.2557C257.179 41.5357 255.372 40.6392 248.333 40.843C254.479 39.9244 258.2 40.0135 262.512 40.7082L267.066 32.016L267.061 31.9904C260.511 30.3877 253.454 29.7673 245.837 30.1571C251.998 29.1654 258.999 29.0166 266.675 30.335L265.204 27.3499Z" fill="white"/>
<path fill-rule="evenodd" clip-rule="evenodd" d="M233.729 17.1734C247.885 13.1989 257.652 14.7946 261.097 25.1663C255.413 24.6054 250.142 24.6025 245.08 25.1774C242.965 19.9013 239.182 17.2331 233.729 17.1734Z" fill="white"/>
<path fill-rule="evenodd" clip-rule="evenodd" d="M215.404 6.50293C217.683 10.7564 221.514 11.6439 223.05 11.6206L243.635 11.3095C253.989 11.4309 258.956 14.4912 261.005 21.3385C258.341 16.9884 254.83 15.1628 251.019 14.3356C245.531 13.1445 240.07 14.674 235.042 15.477C232.1 15.9468 229.558 16.1704 227.105 16.255C219.219 16.6699 215.225 12.6238 215.404 6.50293Z" fill="white"/>
<path fill-rule="evenodd" clip-rule="evenodd" d="M213.383 2.87207C221.269 2.87207 222.819 3.59669 225.775 6.29576C226.267 6.74521 226.697 7.12566 227.311 7.64431C228.662 8.78404 230.384 9.51173 232.329 10.1342C230.842 10.246 229.328 10.0636 227.926 10.0306C223.522 9.92674 220.211 9.26781 217.991 6.3994C217.57 5.85509 217.033 5.41815 216.558 4.84324C215.822 3.95433 214.509 3.28697 213.383 2.87207Z" fill="white"/>
<path d="M20.5243 37.4947V32.5708H2.36719V62.107H7.22787V49.8044H18.5037V44.8805H7.22787V37.4947H20.5243Z" fill="white"/>
<path d="M39.0002 49.6255C43.2745 48.7452 46.1924 44.7231 45.7544 40.3217C45.3234 35.9274 41.6707 32.5779 37.3045 32.5708H24.75V62.0999H29.6107V49.8044H33.221L41.5789 62.107H47.4782L39.0002 49.6255ZM29.6107 44.8805V37.4947H37.3045C38.6327 37.4517 39.8833 38.1388 40.5615 39.3054C41.2398 40.4648 41.2398 41.9033 40.5615 43.0699C39.8833 44.2292 38.6327 44.9235 37.3045 44.8734L29.6107 44.8805Z" fill="white"/>
<path d="M69.8661 37.4947V32.5708H51.709V62.107H69.8661V57.1831H56.5697V49.8044H67.8455V44.8805H56.5697V37.4947H69.8661Z" fill="white"/>
<path d="M92.249 37.4947V32.5708H74.0918V62.107H92.249V57.1831H78.9525V49.8044H90.2283V44.8805H78.9525V37.4947H92.249Z" fill="white"/>
<path d="M101.333 57.1831V32.5708H96.4727V62.107H113.485V57.1831H101.333Z" fill="white"/>
<path d="M130.018 32.3418L117.711 62.107H122.981L125.002 57.2046H134.971L136.991 62.107H142.255L130.018 32.3418ZM127.044 52.2806L130.004 45.1167L132.95 52.2806H127.044Z" fill="white"/>
<path d="M164.722 32.5708V50.5201L146.494 32.4634V62.1069H151.355V44.1648L169.583 62.2143V32.5708H164.722Z" fill="white"/>
<path d="M182.349 32.5708H173.836V62.107H182.349C190.403 62.107 196.931 55.4941 196.931 47.3425C196.931 39.1837 190.403 32.5708 182.349 32.5708ZM182.349 57.1831H178.697V37.4947H182.349C187.719 37.4947 192.071 41.9033 192.071 47.3353C192.071 52.7745 187.719 57.1831 182.349 57.1831Z" fill="white"/>
<path d="M215.76 32.5708C207.706 32.5708 201.178 39.1837 201.178 47.3424C201.178 55.5012 207.706 62.1141 215.76 62.1141C223.814 62.1141 230.342 55.5012 230.342 47.3424C230.328 39.1837 223.807 32.5779 215.76 32.5708ZM215.76 57.1903C210.391 57.1903 206.038 52.7816 206.038 47.3424C206.038 41.9033 210.391 37.4947 215.76 37.4947C221.129 37.4947 225.481 41.9033 225.481 47.3424C225.474 52.7816 221.122 57.183 215.76 57.1903Z" fill="white"/>
</svg>
