<svg width="266" height="61" viewBox="0 0 266 61" fill="none" xmlns="http://www.w3.org/2000/svg">
<path fill-rule="evenodd" clip-rule="evenodd" d="M263.205 25.3498C258.289 24.6235 256.856 24.2145 251.53 24.1109C247.377 24.0302 242.951 24.4776 239.138 25.0446C238.421 26.3588 237.704 27.6729 236.987 28.987L243.03 39.569C246.085 39.8337 248.333 41.3109 249.892 43.8226C253.067 49.7361 250.916 55.2347 253.783 58.0357C254.593 58.8264 255.22 59.5886 257.061 60.2143L259.519 40.6064L259.702 40.2555C255.18 39.5355 253.373 38.6391 246.334 38.8428C252.48 37.9243 256.201 38.0134 260.513 38.708L265.067 30.0158L265.062 29.9903C258.512 28.3876 251.455 27.7672 243.838 28.157C249.999 27.1653 257 27.0165 264.676 28.3349L263.205 25.3498Z" fill="white"/>
<path fill-rule="evenodd" clip-rule="evenodd" d="M231.729 15.1732C245.886 11.1986 255.653 12.7944 259.098 23.166C253.414 22.6051 248.143 22.6023 243.081 23.1772C240.966 17.901 237.183 15.2329 231.729 15.1732Z" fill="white"/>
<path fill-rule="evenodd" clip-rule="evenodd" d="M213.406 4.50305C215.685 8.75654 219.516 9.64402 221.052 9.62077L241.637 9.30962C251.991 9.43103 256.958 12.4914 259.007 19.3386C256.343 14.9885 252.832 13.1629 249.021 12.3357C243.533 11.1446 238.072 12.6741 233.044 13.4771C230.102 13.947 227.56 14.1705 225.107 14.2551C217.221 14.67 213.227 10.624 213.406 4.50305Z" fill="white"/>
<path fill-rule="evenodd" clip-rule="evenodd" d="M211.384 0.871948C219.27 0.871948 220.82 1.59656 223.776 4.29564C224.268 4.74508 224.698 5.12554 225.312 5.64419C226.663 6.78392 228.385 7.51161 230.33 8.13412C228.843 8.24587 227.329 8.06349 225.927 8.03047C221.523 7.92661 218.212 7.26769 215.992 4.39928C215.571 3.85497 215.034 3.41803 214.559 2.84312C213.823 1.95421 212.51 1.28684 211.384 0.871948Z" fill="white"/>
<path d="M18.5243 35.4947V30.5708H0.367188V60.107H5.22787V47.8044H16.5037V42.8805H5.22787V35.4947H18.5243Z" fill="white"/>
<path d="M37.0002 47.6255C41.2745 46.7452 44.1924 42.7231 43.7544 38.3217C43.3234 33.9274 39.6707 30.5779 35.3045 30.5708H22.75V60.0999H27.6107V47.8044H31.221L39.5789 60.107H45.4782L37.0002 47.6255ZM27.6107 42.8805V35.4947H35.3045C36.6327 35.4517 37.8833 36.1388 38.5615 37.3054C39.2398 38.4648 39.2398 39.9033 38.5615 41.0699C37.8833 42.2292 36.6327 42.9235 35.3045 42.8734L27.6107 42.8805Z" fill="white"/>
<path d="M67.8671 35.4947V30.5708H49.71V60.107H67.8671V55.1831H54.5706V47.8044H65.8465V42.8805H54.5706V35.4947H67.8671Z" fill="white"/>
<path d="M90.249 35.4947V30.5708H72.0918V60.107H90.249V55.1831H76.9525V47.8044H88.2283V42.8805H76.9525V35.4947H90.249Z" fill="white"/>
<path d="M99.3333 55.1831V30.5708H94.4727V60.107H111.485V55.1831H99.3333Z" fill="white"/>
<path d="M128.018 30.3418L115.711 60.107H120.981L123.002 55.2046H132.971L134.991 60.107H140.255L128.018 30.3418ZM125.044 50.2806L128.004 43.1167L130.95 50.2806H125.044Z" fill="white"/>
<path d="M162.722 30.5708V48.5201L144.494 30.4634V60.1069H149.355V42.1648L167.583 60.2143V30.5708H162.722Z" fill="white"/>
<path d="M180.349 30.5708H171.836V60.107H180.349C188.403 60.107 194.931 53.4941 194.931 45.3425C194.931 37.1837 188.403 30.5708 180.349 30.5708ZM180.349 55.1831H176.697V35.4947H180.349C185.719 35.4947 190.071 39.9033 190.071 45.3353C190.071 50.7745 185.719 55.1831 180.349 55.1831Z" fill="white"/>
<path d="M213.76 30.5708C205.706 30.5708 199.178 37.1837 199.178 45.3424C199.178 53.5012 205.706 60.1141 213.76 60.1141C221.814 60.1141 228.342 53.5012 228.342 45.3424C228.328 37.1837 221.807 30.5779 213.76 30.5708ZM213.76 55.1903C208.391 55.1903 204.038 50.7816 204.038 45.3424C204.038 39.9033 208.391 35.4947 213.76 35.4947C219.129 35.4947 223.481 39.9033 223.481 45.3424C223.474 50.7816 219.122 55.183 213.76 55.1903Z" fill="white"/>
</svg>
