<svg width="55" height="61" viewBox="0 0 55 61" fill="none" xmlns="http://www.w3.org/2000/svg">
<path fill-rule="evenodd" clip-rule="evenodd" d="M52.2042 25.3499C47.2883 24.6236 45.8547 24.2146 40.5293 24.111C36.3763 24.0303 31.9498 24.4778 28.1372 25.0448C27.4201 26.3589 26.7033 27.673 25.9863 28.9871L32.0289 39.5691C35.0839 39.8339 37.3316 41.3111 38.8907 43.8227C42.0655 49.7362 39.9149 55.2348 42.7825 58.0358C43.592 58.8265 44.2192 59.5888 46.0597 60.2145L48.5177 40.6065L48.7015 40.2557C44.1787 39.5357 42.3723 38.6392 35.3331 38.843C41.4792 37.9244 45.2002 38.0135 49.5123 38.7082L54.0663 30.016L54.0609 29.9904C47.5107 28.3877 40.4544 27.7673 32.8367 28.1571C38.9983 27.1654 45.9989 27.0166 53.6751 28.335L52.2042 25.3499Z" fill="#FA824C"/>
<path fill-rule="evenodd" clip-rule="evenodd" d="M20.7285 15.1734C34.8852 11.1989 44.652 12.7946 48.0966 23.1663C42.4126 22.6054 37.1423 22.6025 32.0803 23.1774C29.9655 17.9013 26.1817 15.2331 20.7285 15.1734Z" fill="#FA824C"/>
<path fill-rule="evenodd" clip-rule="evenodd" d="M2.40421 4.50293C4.68303 8.75641 8.5144 9.64389 10.0497 9.62064L30.6352 9.3095C40.9891 9.43091 45.9563 12.4912 48.0046 19.3385C45.3414 14.9884 41.8298 13.1628 38.0191 12.3356C32.5307 11.1445 27.0696 12.674 22.0423 13.477C19.1002 13.9468 16.5576 14.1704 14.1051 14.255C6.21924 14.6699 2.22503 10.6238 2.40421 4.50293V4.50293Z" fill="#FA824C"/>
<path fill-rule="evenodd" clip-rule="evenodd" d="M0.382812 0.87207C8.26869 0.87207 9.81886 1.59669 12.7751 4.29576C13.2673 4.74521 13.6969 5.12566 14.3113 5.64431C15.6616 6.78404 17.3837 7.51173 19.3295 8.13424C17.8418 8.246 16.3276 8.06361 14.9257 8.0306C10.5218 7.92674 7.21081 7.26781 4.99143 4.3994C4.57038 3.85509 4.03338 3.41815 3.55776 2.84324C2.8224 1.95433 1.50934 1.28697 0.382812 0.87207Z" fill="#FA824C"/>
</svg>
