<svg width="32" height="35" viewBox="0 0 32 35" fill="none" xmlns="http://www.w3.org/2000/svg">
<path fill-rule="evenodd" clip-rule="evenodd" d="M30.3833 14.5682C27.5588 14.1548 26.7352 13.922 23.6755 13.863C21.2894 13.8171 18.7462 14.0718 16.5557 14.3946C16.1437 15.1426 15.7319 15.8906 15.3199 16.6387L18.7916 22.6623C20.5469 22.813 21.8383 23.6538 22.7341 25.0835C24.5582 28.4497 23.3225 31.5797 24.9701 33.1741C25.4352 33.6242 25.7955 34.0581 26.853 34.4142L28.2652 23.2528L28.3708 23.0531C25.7723 22.6432 24.7344 22.1329 20.6901 22.2489C24.2213 21.7261 26.3592 21.7768 28.8366 22.1722L31.4531 17.2243L31.45 17.2098C27.6866 16.2975 23.6325 15.9443 19.2558 16.1662C22.7959 15.6017 26.818 15.517 31.2284 16.2675L30.3833 14.5682Z" fill="#FF6633"/>
<path fill-rule="evenodd" clip-rule="evenodd" d="M12.2988 8.77548C20.4325 6.51303 26.044 7.42138 28.023 13.3252C24.7573 13.006 21.7293 13.0043 18.8209 13.3316C17.6059 10.3282 15.432 8.80944 12.2988 8.77548Z" fill="#FF6633"/>
<path fill-rule="evenodd" clip-rule="evenodd" d="M1.77138 2.70166C3.08067 5.12287 5.28197 5.62806 6.16409 5.61482L17.9914 5.43771C23.9402 5.50682 26.794 7.24886 27.9709 11.1465C26.4408 8.67032 24.4232 7.63112 22.2338 7.16027C19.0804 6.48222 15.9428 7.35287 13.0544 7.80998C11.364 8.07743 9.90316 8.20466 8.4941 8.25285C3.96329 8.48903 1.66843 6.18587 1.77138 2.70166Z" fill="#FF6633"/>
<path fill-rule="evenodd" clip-rule="evenodd" d="M0.609375 0.634766C5.14018 0.634766 6.03082 1.04724 7.72932 2.58364C8.01211 2.83947 8.25893 3.05604 8.61194 3.35127C9.38775 4.00004 10.3772 4.41426 11.4951 4.76862C10.6404 4.83223 9.77038 4.72841 8.96495 4.70962C6.43471 4.6505 4.53238 4.27542 3.25724 2.64263C3.01533 2.33279 2.70679 2.08407 2.43353 1.75682C2.01103 1.25082 1.25661 0.870937 0.609375 0.634766Z" fill="#FF6633"/>
</svg>
