<svg width="677" height="515" viewBox="0 0 677 515" fill="none" xmlns="http://www.w3.org/2000/svg">
<g clip-path="url(#clip0_3_1364)">
<path d="M364.213 514.725C500.498 514.725 610.979 483.108 610.979 444.106C610.979 405.104 500.498 373.487 364.213 373.487C227.927 373.487 117.446 405.104 117.446 444.106C117.446 483.108 227.927 514.725 364.213 514.725Z" fill="#F5F5F5"/>
<path d="M598.993 169.391C598.993 169.391 555.28 213.175 579.957 278.145C604.634 343.114 537.654 451.161 537.654 451.161C537.654 451.161 538.359 451.055 539.706 450.822C629.487 434.947 674.095 332.098 624.171 255.695C605.635 227.292 590.371 193.967 598.993 169.391Z" fill="#FA824C"/>
<path d="M598.993 169.391C598.993 169.391 574.317 223.062 598.993 266.846C623.67 310.629 603.224 433.506 537.654 451.161" stroke="#535461" stroke-width="2" stroke-miterlimit="10"/>
<path d="M676.845 346.483C676.845 346.483 626.963 338.524 622.415 383.303C617.868 428.083 526.529 434.283 526.529 434.283C526.529 434.283 527.121 434.693 528.242 435.427C603.682 485.03 675.801 467.022 664.937 401.156C660.868 376.672 661.193 352.076 676.845 346.483Z" fill="#FA824C"/>
<path opacity="0.2" d="M676.845 346.483C676.845 346.483 626.963 338.524 622.415 383.303C617.868 428.083 526.529 434.283 526.529 434.283C526.529 434.283 527.121 434.693 528.242 435.427C603.682 485.03 675.801 467.022 664.937 401.156C660.868 376.672 661.193 352.076 676.845 346.483Z" fill="#F5F5F5"/>
<path d="M676.845 346.482C676.845 346.482 638.124 354.999 641.304 390.266C644.483 425.533 583.779 467.792 526.501 434.269" stroke="#535461" stroke-width="2" stroke-miterlimit="10"/>
<path opacity="0.2" d="M106.744 0.78149C101.061 0.583757 95.2376 0.78149 89.9074 2.77294C75.4046 8.18942 68.5304 25.9077 70.7654 41.2532C73.0004 56.5987 82.1942 69.9245 91.7335 82.1345C101.273 94.3445 111.609 106.399 116.84 120.975C119.449 128.256 120.669 136.412 118.018 143.679C113.928 154.886 101.597 161.15 89.7594 162.449C77.9217 163.749 66.0346 161.214 54.1545 160.331C49.1698 159.978 44.0442 159.935 39.3485 161.574C34.1947 163.36 29.9009 167.004 25.9527 170.804C10.5474 185.704 -1.78388 206.043 0.211403 227.398C2.46755 251.606 22.5896 270.744 44.6293 281.005C51.9266 284.408 59.6468 287.163 66.0698 292.021C82.9909 304.831 86.7911 328.835 85.1061 350.028C83.421 371.22 77.6819 392.434 80.8758 413.443C84.6337 437.877 101.266 459.946 123.7 470.256C143.688 479.437 168.703 478.865 186.45 465.878C195.1 459.522 201.643 450.758 207.333 441.67C215.921 427.958 222.889 413.293 228.097 397.971C230.571 390.69 232.898 382.858 238.672 377.795C242.198 374.681 246.766 372.936 251.286 371.58C264.907 367.499 279.255 366.376 293.003 362.746C306.752 359.116 320.585 352.351 328.058 340.254C338.634 323.086 333.699 301.131 333.748 280.934C333.832 234.919 361.322 193.72 371.468 148.876C374.782 134.216 376.015 117.995 368.612 104.923C363.578 96.0041 355.097 89.6484 346.178 84.705C326.578 73.8015 304.298 68.95 282.378 64.2256C251.913 57.6721 214.919 56.8247 191.307 35.6249C168.647 15.2866 137.646 0.78149 106.744 0.78149Z" fill="#FA824C"/>
<g opacity="0.5">
<path opacity="0.5" d="M217.253 178.89C217.251 167.798 215.517 156.776 212.113 146.221L203.653 119.944C203.653 119.506 203.653 119.075 203.653 118.645C203.914 101.802 190.807 93.3984 185.759 94.3094C180.591 95.2415 166.25 88.0384 166.25 88.0384V88.2361C165.267 87.1024 164.38 85.8882 163.599 84.6063C166.077 82.7988 168.169 80.5135 169.752 77.8846C171.335 75.2557 172.378 72.3363 172.819 69.298C173.259 66.2597 173.089 63.1638 172.319 60.1923C171.548 57.2207 170.191 54.4335 168.33 51.9945C169.88 50.828 171.062 49.2394 171.735 47.4184C172.906 44.1205 172.01 40.3565 170.106 37.4187C169.297 36.1924 168.351 35.0623 167.286 34.0502C165.674 32.4501 163.913 31.0077 162.027 29.7425C157.324 26.4799 152.156 23.6763 146.516 22.6806C145.54 22.4497 144.523 22.4497 143.547 22.6806C142.7 23.023 141.894 23.4588 141.143 23.98C137.28 26.1833 132.471 25.2299 128.015 24.9969C123.559 24.7638 118.145 26.0138 116.734 30.2015C116.297 31.4938 116.326 32.8921 116.029 34.2197C115.324 37.4682 112.821 39.9893 110.89 42.694C108.958 45.3987 107.512 49.0497 109.12 51.9874C109.67 52.9761 110.53 53.8871 110.53 55.017C110.53 55.8291 110.051 56.5565 109.825 57.3333C109.339 59.0988 110.255 60.8642 111.665 62.1424C112.273 62.7986 112.988 63.3456 113.78 63.7596C116.015 64.9036 118.589 65.2567 120.866 66.316C122.003 66.8507 123.046 67.5662 123.954 68.4346C125.067 69.6015 125.937 70.9786 126.513 72.4856C127.089 73.9927 127.36 75.5995 127.31 77.2125L127.783 77.262C127.783 77.4032 127.783 77.5374 127.783 77.6786C128.276 77.7351 128.798 77.7845 129.312 77.8057C130.053 79.0028 130.9 80.1303 131.844 81.1742C131.684 81.7769 131.503 82.3889 131.301 83.0103C129.644 84.1614 116.093 93.2006 100.681 91.0256C84.2318 88.7022 74.8265 160.734 74.8265 160.734C74.2168 164.853 73.9198 169.012 73.9381 173.177C73.8676 183.769 76.0885 197.632 88.4621 195.591L95.0402 193.423V229.05C95.0402 229.05 95.9779 238.81 92.6924 245.293C89.4069 251.775 103.035 249.473 103.035 249.473C103.035 249.473 103.557 250.017 104.516 250.942L104.213 251.797L104.615 252.206C102.822 258.344 100.405 264.281 97.4021 269.925L97.7899 270.122C97.5431 270.595 97.4021 270.828 97.4021 270.828C97.4021 270.828 102.464 273.42 109.43 276.76C115.028 295.715 127.282 339.611 123.249 347.973L123.362 348.213C124.116 349.78 128.332 359.025 127.479 367.492C126.711 375.062 137.174 409.461 141.08 421.953L139.233 422.327L145.811 446.027L144.4 461.365C144.4 461.365 136.412 482.742 155.209 478.561C174.005 474.38 168.837 457.185 168.837 457.185L169.31 422.327C169.31 422.327 167.498 421.317 165.263 420.35C163.726 416.19 160.377 406.36 160.377 399.56C160.377 390.732 154.264 352.619 154.264 352.619V352.542V352.393V352.351L154.229 351.843V351.758C154.229 351.285 154.151 350.635 154.095 349.844V349.802C153.39 339.498 151.275 304.493 152.819 286.245C154.177 285.317 155.589 284.473 157.049 283.716C161.625 295.298 173.42 326.589 172.666 339.717C171.728 355.96 172.433 343.206 172.666 341.13C172.736 340.487 172.786 341.264 172.807 343.008C172.807 343.326 172.807 343.679 172.807 344.053C172.807 344.428 172.807 344.844 172.807 345.275C172.807 345.706 172.807 346.172 172.807 346.687C172.807 346.932 172.807 347.182 172.807 347.436C172.807 347.944 172.807 348.476 172.807 349.032C172.807 349.31 172.807 349.592 172.807 349.879C172.807 351.292 172.807 352.859 172.757 354.491C172.757 354.816 172.757 355.145 172.757 355.479C172.757 356.475 172.757 357.492 172.708 358.523C172.708 359.935 172.652 361.305 172.624 362.725C172.553 365.903 172.461 369.116 172.349 372.124C172.349 372.459 172.337 372.79 172.313 373.12C172.29 373.779 172.264 374.424 172.236 375.055C172.208 375.686 172.179 376.303 172.151 376.905C172.123 377.503 172.092 378.085 172.059 378.649C172.024 379.313 171.982 379.949 171.947 380.556L169.394 380.189L168.852 386.064C167.996 395.393 169.2 404.795 172.377 413.606C173.251 416.021 173.928 418.02 174.076 418.733C174.548 421.056 174.076 437.8 174.076 437.8C174.076 437.8 176.896 459.642 190.059 455.455C195.982 453.569 198.858 447.835 200.233 442.086C201.759 435.423 201.19 428.45 198.604 422.122C196.736 417.419 194.825 410.823 196.172 405.725C198.52 396.897 198.52 384.348 198.52 384.348L197.068 384.144C197.429 383.454 197.757 382.747 198.048 382.025C198.048 382.025 197.575 349.957 201.805 345.776C204.132 343.474 203.921 337.945 203.216 333.425C202.208 326.884 201.972 320.248 202.51 313.652C202.8 310.255 203.216 307.296 203.702 306.244C204.943 303.786 206.184 279.013 200.691 267.093L201.82 266.74L201.643 265.864L201.82 265.807C202.648 268.022 203.589 270.193 204.64 272.311C204.917 272.529 205.236 272.688 205.577 272.778C220.799 270.101 221.413 255.871 220.567 248.103C221.208 248.414 221.561 248.612 221.561 248.612L222.971 228.132C224.416 224.863 224.952 220.689 224.917 216.176C224.98 200.047 217.253 178.89 217.253 178.89ZM200.473 237.101C199.429 228.182 197.984 219.785 197.984 219.785L190.934 194.687V185.549L202.116 227.355L200.473 237.101Z" fill="url(#paint0_linear_3_1364)"/>
</g>
<path d="M168.774 374.193L168.252 379.935C167.429 389.057 168.596 398.25 171.672 406.876C172.511 409.242 173.166 411.191 173.307 411.89C173.759 414.164 173.307 430.512 173.307 430.512C173.307 430.512 176.029 451.86 188.727 447.771C194.438 445.935 197.187 440.321 198.541 434.707C200.009 428.196 199.458 421.391 196.962 415.202C195.157 410.604 193.31 404.143 194.614 399.178C196.884 390.549 196.884 378.289 196.884 378.289L168.774 374.193Z" fill="#5A5773"/>
<path d="M155.174 275.638C155.174 275.638 172.856 318.786 171.947 334.675C171.037 350.564 171.721 338.079 171.947 336.038C172.349 332.401 171.947 375.585 170.586 380.528C170.586 380.528 189.178 394.15 196.433 375.987C196.433 375.987 195.982 344.654 200.057 340.565C202.299 338.319 202.081 332.91 201.418 328.496C200.44 322.111 200.203 315.635 200.713 309.196C200.988 305.877 201.369 302.953 201.862 301.957C203.223 299.231 204.584 268.35 196.419 259.72L155.174 275.638Z" fill="#605D82"/>
<path opacity="0.1" d="M172.856 380.549C174.217 375.556 174.619 332.401 174.217 336.059C173.991 338.1 173.307 350.592 174.217 334.696C175.126 318.8 157.444 275.659 157.444 275.659L197.004 260.419C196.821 260.186 196.63 259.967 196.44 259.762L155.181 275.659C155.181 275.659 172.863 318.807 171.954 334.696C171.044 350.585 171.728 338.1 171.954 336.059C172.356 332.422 171.954 375.606 170.593 380.549C170.593 380.549 178.017 385.987 185.314 385.408C178.821 384.92 172.856 380.549 172.856 380.549Z" fill="black"/>
<path d="M139.754 415.52L146.099 438.683L144.739 453.668C144.739 453.668 137.032 474.557 155.166 470.468C173.3 466.379 168.315 449.579 168.315 449.579L168.767 415.52C168.767 415.52 161.512 411.431 158.339 411.89C155.166 412.349 139.754 415.52 139.754 415.52Z" fill="#5A5773"/>
<path d="M108.472 264.741C108.472 264.741 129.327 332.408 124.342 342.853C124.342 342.853 129.327 352.845 128.424 361.92C127.522 370.994 142.934 419.594 142.934 419.594L165.609 415.506C165.609 415.506 160.166 401.883 160.166 393.254C160.166 384.624 154.272 347.351 154.272 347.351C154.272 347.351 149.287 279.225 155.181 271.958L108.472 264.741Z" fill="#605D82"/>
<g opacity="0.1">
<path opacity="0.1" d="M153.418 277.495C149.66 292.918 153.813 349.675 153.813 349.675C153.813 349.675 159.707 386.912 159.707 395.577C159.707 402.166 162.873 411.657 164.375 415.781L165.602 415.562C165.602 415.562 160.159 401.94 160.159 393.31C160.159 384.68 154.264 347.408 154.264 347.408C154.264 347.408 150.471 295.538 153.418 277.495Z" fill="black"/>
<path opacity="0.1" d="M124.342 342.853L124.455 343.086C124.49 342.853 124.525 342.606 124.546 342.38C124.486 342.541 124.418 342.699 124.342 342.853Z" fill="black"/>
<path opacity="0.1" d="M154.152 274.19C154.358 273.407 154.704 272.667 155.174 272.008L108.472 264.741C108.472 264.741 108.747 265.624 109.219 267.199L154.152 274.19Z" fill="black"/>
</g>
<path d="M217.288 240.215C217.288 240.215 224.092 265.638 203.688 269.282C203.357 269.196 203.047 269.042 202.778 268.83C202.778 268.83 190.99 245.667 200.057 236.585L217.288 240.215Z" fill="#FAC3CA"/>
<path d="M133.861 71.2875C133.861 71.2875 135.221 90.3546 120.26 99.4433C105.299 108.532 151.987 133.503 151.987 133.503L176.474 94.4434C176.474 94.4434 166.053 95.7923 159.708 77.6432L133.861 71.2875Z" fill="#FAC3CA"/>
<path opacity="0.1" d="M123.883 100.792C123.883 100.792 147.009 148.933 167.864 103.518L200.057 263.371C200.057 263.371 150.174 278.815 149.73 286.082C149.286 293.349 99.4111 267.467 99.4111 267.467C99.4111 267.467 110.29 247.482 107.576 235.222C104.861 222.963 123.883 100.792 123.883 100.792Z" fill="black"/>
<path d="M123.883 99.8811C123.883 99.8811 147.009 148.022 167.864 102.607L200.057 262.467C200.057 262.467 150.174 277.911 149.73 285.178C149.286 292.445 99.4111 266.556 99.4111 266.556C99.4111 266.556 110.29 246.571 107.576 234.311C104.861 222.052 123.883 99.8811 123.883 99.8811Z" fill="#E1E7EF"/>
<path d="M146.558 428.238C146.558 428.238 140.664 415.068 154.264 415.068C167.864 415.068 165.601 426.875 165.601 426.875L146.558 428.238Z" fill="#5A5773"/>
<path d="M177.39 394.171C177.39 394.171 171.947 380.09 185.554 379.638C199.161 379.186 192.358 392.349 192.358 392.349L177.39 394.171Z" fill="#5A5773"/>
<path opacity="0.1" d="M165.827 89.6484C165.827 89.6484 179.653 96.7103 184.645 95.7782C189.637 94.846 202.779 103.497 201.876 120.756L210.069 146.504C213.346 156.828 215.011 167.597 215.004 178.431C215.004 178.431 226.793 211.127 220.447 225.661L219.086 245.646C219.086 245.646 208.659 239.742 197.773 241.557L200.515 225.237L188.248 178.904L167.844 129.4L165.827 89.6484Z" fill="black"/>
<path d="M165.827 88.7516C165.827 88.7516 179.653 95.8135 184.645 94.8813C189.637 93.9491 202.779 102.6 201.876 119.859L210.069 145.607C213.346 155.931 215.011 166.7 215.004 177.534C215.004 177.534 226.793 210.23 220.447 224.764L219.086 244.749C219.086 244.749 208.659 238.845 197.773 240.66L200.494 224.312L188.248 177.993L167.865 128.489L165.827 88.7516Z" fill="#67647E"/>
<path opacity="0.1" d="M188.727 143.933V195.252L195.531 219.778C195.531 219.778 200.064 246.571 198.703 254.749C197.343 262.926 175.578 264.741 169.684 257.926C163.79 251.112 166.962 192.957 166.962 192.957L165.827 107.826L166.737 105.1L188.727 143.933Z" fill="black"/>
<path d="M189.658 141.666V192.985L196.461 217.511C196.461 217.511 200.995 244.304 199.634 252.482C198.273 260.659 176.509 262.474 170.614 255.659C164.72 248.845 167.893 190.69 167.893 190.69L166.758 105.538L189.658 141.666Z" fill="#67647E"/>
<path opacity="0.1" d="M98.2695 184.356L112.779 229.552L105.976 248.852C105.976 248.852 138.168 282.911 158.572 266.563C158.572 266.563 160.842 197.074 156.302 180.726C151.761 164.377 130.004 109.401 130.004 109.401L125.498 94.8884L101.47 108.511L98.2695 184.356Z" fill="black"/>
<path d="M97.1342 182.082V226.571C97.1342 226.571 98.0437 236.112 94.8639 242.468C91.6842 248.823 104.84 246.557 104.84 246.557C104.84 246.557 137.033 280.616 157.437 264.268C157.437 264.268 159.707 194.779 155.167 178.431C150.626 162.082 128.868 107.105 128.868 107.105L124.335 92.572L100.307 106.194L97.1342 182.082Z" fill="#67647E"/>
<path opacity="0.1" d="M132.274 84.6698C132.274 84.6698 118.448 94.8884 102.577 92.6144C86.7069 90.3405 77.64 160.741 77.64 160.741C77.64 160.741 71.7458 197.074 90.7891 193.896L132.958 179.815C132.958 179.815 123.891 170.274 125.252 158.015L104.841 166.185L105.757 127.133L132.274 84.6698Z" fill="black"/>
<path opacity="0.1" d="M78.5423 159.83C78.5423 159.83 72.6481 196.163 91.6915 192.985L133.86 178.904C133.86 178.904 124.793 169.37 126.154 157.104L105.757 165.281L78.5423 159.83Z" fill="black"/>
<path d="M125.153 161.892C125.153 161.892 139.304 143.255 149.724 152.203C160.145 161.15 128.89 177.548 128.89 177.548L125.153 161.892Z" fill="#FAC3CA"/>
<path d="M132.274 83.7589C132.274 83.7589 118.448 93.9775 102.577 91.7035C86.7069 89.4296 77.64 159.83 77.64 159.83C77.64 159.83 71.7458 196.163 90.7891 192.985L132.958 178.904C132.958 178.904 123.891 169.363 125.252 157.104L104.841 165.281L105.757 126.222L128.883 107.155L132.274 83.7589Z" fill="#67647E"/>
<path opacity="0.1" d="M160.159 78.5331L134.312 72.1774C134.312 72.1774 135.658 73.7027 134.086 79.67C138.246 84.4509 143.357 90.7996 150.182 90.7996C155.066 90.8088 159.821 89.2302 163.733 86.3012C162.273 83.8443 161.075 81.2406 160.159 78.5331Z" fill="black"/>
<path d="M149.731 89.8956C162.254 89.8956 172.405 79.7275 172.405 67.1846C172.405 54.6416 162.254 44.4735 149.731 44.4735C137.208 44.4735 127.057 54.6416 127.057 67.1846C127.057 79.7275 137.208 89.8956 149.731 89.8956Z" fill="#FAC3CA"/>
<path opacity="0.1" d="M158.325 57.3262C163.585 56.4293 169.367 54.0919 171.129 49.0497C172.257 45.8224 171.397 42.1502 169.557 39.276C167.717 36.4018 165.009 34.1914 162.217 32.2141C157.684 29.0221 152.685 26.2821 147.228 25.3217C146.287 25.0964 145.306 25.0964 144.366 25.3217C143.547 25.6572 142.769 26.0835 142.046 26.5928C138.316 28.7467 133.677 27.8145 129.355 27.5886C125.033 27.3626 119.851 28.5843 118.49 32.6731C118.067 33.9372 118.096 35.3002 117.785 36.5995C117.08 39.7774 114.69 42.2491 112.85 44.8973C111.01 47.5455 109.593 51.1259 111.144 53.9789C111.673 54.9464 112.554 55.8361 112.554 56.9378C112.418 57.7208 112.181 58.4828 111.849 59.2047C111.207 61.5492 113.076 63.915 115.233 65.0307C117.39 66.1465 119.872 66.4925 122.072 67.5306C124.131 68.5483 125.855 70.1368 127.038 72.1073C128.222 74.0778 128.816 76.3474 128.749 78.6461C130.751 78.8791 133.085 78.9992 134.438 77.502C135.045 76.8312 135.341 75.9343 135.891 75.221C136.596 74.2889 137.696 73.738 138.598 72.9895C143.343 69.0843 139.973 63.689 142.659 59.4801C144.069 57.3121 146.311 57.9759 148.582 58.0112C151.844 58.0877 155.106 57.8583 158.325 57.3262Z" fill="black"/>
<path d="M157.874 56.8742C163.134 55.9773 168.915 53.6398 170.678 48.5976C171.806 45.3704 170.946 41.6982 169.106 38.824C167.266 35.9498 164.558 33.7394 161.766 31.7621C157.233 28.5701 152.234 25.8301 146.777 24.8697C145.836 24.6444 144.855 24.6444 143.914 24.8697C143.096 25.2051 142.318 25.6315 141.595 26.1408C137.865 28.2947 133.226 27.3625 128.904 27.1365C124.582 26.9106 119.4 28.1323 118.039 32.2211C117.616 33.4852 117.644 34.8481 117.334 36.1475C116.629 39.3254 114.239 41.797 112.399 44.4453C110.559 47.0935 109.141 50.6738 110.693 53.5268C111.221 54.4943 112.103 55.3841 112.103 56.4858C111.967 57.2688 111.73 58.0308 111.398 58.7526C110.756 61.0972 112.624 63.4629 114.782 64.5787C116.939 65.6945 119.421 66.0405 121.621 67.0786C123.688 68.0952 125.419 69.6869 126.607 71.6631C127.795 73.6394 128.389 75.9166 128.319 78.2223C130.321 78.4553 132.655 78.5754 134.008 77.0783C134.615 76.4074 134.911 75.5105 135.461 74.7973C136.166 73.8651 137.266 73.3143 138.168 72.5657C142.913 68.6605 139.543 63.2652 142.229 59.0563C143.639 56.8883 145.881 57.5521 148.152 57.5874C151.408 57.6532 154.663 57.4144 157.874 56.8742Z" fill="#4A4347"/>
<path opacity="0.1" d="M185.321 133.263C185.321 133.263 190.306 159.152 188.043 169.144C186.66 174.957 186.865 181.036 188.635 186.742" fill="black"/>
<path opacity="0.1" d="M104.742 144.159C104.742 144.159 102.571 161.418 106.188 165.048L104.742 144.159Z" fill="black"/>
<path d="M231.347 356.856C231.627 356.856 231.896 356.745 232.094 356.546C232.293 356.348 232.404 356.078 232.404 355.797C232.404 355.516 232.293 355.247 232.094 355.048C231.896 354.85 231.627 354.738 231.347 354.738C231.066 354.738 230.797 354.85 230.599 355.048C230.4 355.247 230.289 355.516 230.289 355.797C230.289 356.078 230.4 356.348 230.599 356.546C230.797 356.745 231.066 356.856 231.347 356.856Z" fill="black"/>
<g opacity="0.5">
<path opacity="0.5" d="M556.987 233.45V232.864L364.622 84.7051C364.501 84.6151 364.354 84.5665 364.203 84.5665C364.052 84.5665 363.905 84.6151 363.783 84.7051L171.411 232.864V462.517H171.778V462.884H557.361V233.231L556.987 233.45Z" fill="url(#paint1_linear_3_1364)"/>
</g>
<path d="M550.346 456.111H178.081V234.368L364.213 91.0115L550.346 234.368V456.111Z" fill="white"/>
<path d="M536.949 442.969H191.477V237.186L364.213 104.147L536.949 237.186V442.969Z" fill="#E0E0E0"/>
<path d="M422.814 101.072L212.076 156.408L282.341 424.869L493.08 369.532L422.814 101.072Z" fill="#FA824C"/>
<path d="M474.2 141.857H256.341V419.39H474.2V141.857Z" fill="#F5F5F5"/>
<path opacity="0.05" d="M179.844 234.721L365.976 345.593L179.844 456.464V234.721Z" fill="black"/>
<path d="M178.434 234.721L364.566 345.593L178.434 456.464V234.721Z" fill="white"/>
<path opacity="0.05" d="M549.288 234.721L363.155 345.593L549.288 456.464V234.721Z" fill="black"/>
<path d="M550.698 234.721L364.565 345.593L550.698 456.464V234.721Z" fill="white"/>
<path opacity="0.05" d="M178.434 452.933L364.566 307.458L550.698 452.933H178.434Z" fill="black"/>
<path d="M178.434 456.464L364.566 310.989L550.698 456.464H178.434Z" fill="white"/>
<path d="M216.259 473.307C216.259 473.307 206.91 441.529 218.015 418.125C222.733 408.343 224.155 397.291 222.069 386.629C221.039 381.577 219.55 376.629 217.62 371.849" stroke="#535461" stroke-width="2" stroke-miterlimit="10"/>
<path d="M224.522 357.061C224.522 360.959 217.471 372.251 217.471 372.251C217.471 372.251 210.421 360.952 210.421 357.061C210.421 355.188 211.164 353.392 212.486 352.068C213.808 350.743 215.601 349.999 217.471 349.999C219.341 349.999 221.135 350.743 222.457 352.068C223.779 353.392 224.522 355.188 224.522 357.061Z" fill="#6C63FF"/>
<path d="M236.19 378.642C234.075 381.912 222.033 387.562 222.033 387.562C222.033 387.562 222.252 374.243 224.367 370.973C225.421 369.494 227.004 368.48 228.787 368.14C230.569 367.8 232.414 368.162 233.937 369.15C235.46 370.138 236.544 371.676 236.964 373.444C237.383 375.212 237.106 377.074 236.19 378.642Z" fill="#6C63FF"/>
<path d="M235.655 415.513C232.179 417.264 218.938 416.056 218.938 416.056C218.938 416.056 225.841 404.673 229.31 402.921C230.14 402.456 231.056 402.164 232.001 402.062C232.947 401.961 233.904 402.052 234.814 402.331C235.723 402.609 236.568 403.07 237.295 403.684C238.023 404.298 238.618 405.053 239.047 405.903C239.475 406.754 239.728 407.683 239.788 408.634C239.849 409.585 239.717 410.538 239.4 411.436C239.083 412.335 238.588 413.16 237.944 413.862C237.301 414.563 236.522 415.127 235.655 415.52V415.513Z" fill="#6C63FF"/>
<path d="M229 443.329C225.869 445.646 212.614 446.691 212.614 446.691C212.614 446.691 217.493 434.304 220.624 431.988C222.13 430.981 223.965 430.594 225.749 430.906C227.532 431.217 229.128 432.205 230.205 433.663C231.281 435.121 231.757 436.938 231.533 438.737C231.308 440.537 230.401 442.181 229 443.329Z" fill="#6C63FF"/>
<path d="M207.22 388.31C210.04 391.022 223.006 393.839 223.006 393.839C223.006 393.839 219.826 380.909 217.034 378.197C215.676 376.995 213.908 376.363 212.097 376.432C210.286 376.501 208.571 377.266 207.308 378.568C206.045 379.87 205.331 381.61 205.315 383.425C205.298 385.24 205.981 386.992 207.22 388.317V388.31Z" fill="#6C63FF"/>
<path d="M199.845 420.943C203.321 422.695 216.562 421.487 216.562 421.487C216.562 421.487 209.66 410.103 206.191 408.352C204.534 407.602 202.653 407.522 200.939 408.129C199.225 408.735 197.812 409.981 196.993 411.606C196.174 413.232 196.014 415.111 196.545 416.852C197.077 418.593 198.259 420.061 199.845 420.95V420.943Z" fill="#6C63FF"/>
<path d="M197.025 453.64C200.156 455.956 213.411 457.001 213.411 457.001C213.411 457.001 208.532 444.615 205.401 442.298C204.662 441.693 203.808 441.244 202.891 440.98C201.973 440.715 201.012 440.639 200.065 440.758C199.117 440.876 198.204 441.186 197.38 441.669C196.555 442.152 195.838 442.797 195.27 443.566C194.702 444.334 194.296 445.211 194.077 446.141C193.857 447.072 193.829 448.037 193.993 448.979C194.157 449.921 194.51 450.82 195.032 451.621C195.553 452.422 196.231 453.109 197.025 453.64Z" fill="#6C63FF"/>
<path opacity="0.5" d="M356.458 154.568H269.032V161.63H356.458V154.568Z" fill="#6C63FF"/>
<path opacity="0.5" d="M457.985 182.816H269.032V189.878H457.985V182.816Z" fill="#6C63FF"/>
<path opacity="0.5" d="M457.985 201.177H269.032V208.239H457.985V201.177Z" fill="#6C63FF"/>
<path opacity="0.4" d="M457.985 219.538H269.032V226.6H457.985V219.538Z" fill="#6C63FF"/>
<path opacity="0.4" d="M457.985 237.899H269.032V244.961H457.985V237.899Z" fill="#6C63FF"/>
<path opacity="0.3" d="M376.904 256.26H269.032V263.322H376.904V256.26Z" fill="#6C63FF"/>
<path opacity="0.3" d="M416.387 274.621H269.032V281.683H416.387V274.621Z" fill="#6C63FF"/>
</g>
<defs>
<linearGradient id="paint0_linear_3_1364" x1="73.9452" y1="250.843" x2="224.839" y2="250.843" gradientUnits="userSpaceOnUse">
<stop stop-color="#808080" stop-opacity="0.25"/>
<stop offset="0.54" stop-color="#808080" stop-opacity="0.12"/>
<stop offset="1" stop-color="#808080" stop-opacity="0.1"/>
</linearGradient>
<linearGradient id="paint1_linear_3_1364" x1="245956" y1="280247" x2="245956" y2="77563.9" gradientUnits="userSpaceOnUse">
<stop stop-color="#808080" stop-opacity="0.25"/>
<stop offset="0.54" stop-color="#808080" stop-opacity="0.12"/>
<stop offset="1" stop-color="#808080" stop-opacity="0.1"/>
</linearGradient>
<clipPath id="clip0_3_1364">
<rect width="677" height="514" fill="white" transform="translate(0 0.725098)"/>
</clipPath>
</defs>
</svg>
